Linkin.Park.Road.To.Revolution.Live.At.Milton.Keynes.2008.DVDRip-MS.mp4
      Format : MPEG-4
      Format profile : Base Media
      Codec ID : isom
      File size : 1.12 GiB
      Duration : 1h 25mn
      Overall bit rate : 1 876 Kbps
    
   Video #1
      Format : AVC
      Format/Info : Advanced Video Codec
      Format profile : High@L5.1
      Format settings, CABAC : Yes
      Format settings, ReFrames : 6 frames
      Codec ID : avc1
      Codec ID/Info : Advanced Video Coding
      Duration : 1h 25mn
      Bit rate mode : Variable
      Bit rate : 1 552 Kbps
      Maximum bit rate : 4 696 Kbps
      Width : 852 pixels
      Height : 480 pixels
      Display aspect ratio : 16/9
      Frame rate mode : Constant
      Frame rate : 23.976 fps
      Resolution : 24 bits
      Colorimetry : 4:2:0
      Scan type : Progressive
      Bits/(Pixel*Frame) : 0.158
      Stream size : 946 MiB (83%)
      Writing library : x264 core 57
     
   Audio #2
      Format : AAC
      Format/Info : Advanced Audio Codec
      Format version : Version 4
      Format profile : LC
      Format settings, SBR : No
      Codec ID : 40
      Duration : 1h 25mn
      Bit rate mode : Variable
      Bit rate : 320 Kbps
      Maximum bit rate : 350 Kbps
      Channel(s) : 6 channels
      Channel positions : Front: L C R, Rear: L R, LFE
      Sampling rate : 48.0 KHz
      Resolution : 16 bits
      Stream size : 195 MiB (17%)